<?xml version="1.0" encoding="UTF-8" standalone="no"?>
<svg
   xmlns:dc="http://purl.org/dc/elements/1.1/"
   xmlns:cc="http://creativecommons.org/ns#"
   xmlns:rdf="http://www.w3.org/1999/02/22-rdf-syntax-ns#"
   xmlns:svg="http://www.w3.org/2000/svg"
   xmlns="http://www.w3.org/2000/svg"
   xmlns:sodipodi="http://sodipodi.sourceforge.net/DTD/sodipodi-0.dtd"
   xmlns:inkscape="http://www.inkscape.org/namespaces/inkscape"
   viewBox="15.5 15.5 224.5 224.5"
   id="svg3074"
   version="1.1"
   inkscape:version="0.48.3.1 r9886"
   width="100%"
   height="100%"
   sodipodi:docname="chrome.svg">
  <metadata
     id="metadata3123">
    <rdf:RDF>
      <cc:Work
         rdf:about="">
        <dc:format>image/svg+xml</dc:format>
        <dc:type
           rdf:resource="http://purl.org/dc/dcmitype/StillImage" />
      </cc:Work>
    </rdf:RDF>
  </metadata>
  <sodipodi:namedview
     pagecolor="#ffffff"
     bordercolor="#666666"
     borderopacity="1"
     objecttolerance="10"
     gridtolerance="10"
     guidetolerance="10"
     inkscape:pageopacity="0"
     inkscape:pageshadow="2"
     inkscape:window-width="1920"
     inkscape:window-height="1036"
     id="namedview3121"
     showgrid="false"
     inkscape:zoom="3.9109131"
     inkscape:cx="70.571754"
     inkscape:cy="112.25"
     inkscape:window-x="0"
     inkscape:window-y="22"
     inkscape:window-maximized="1"
     inkscape:current-layer="svg3074" />
  <defs
     id="defs3076">
    <radialGradient
       cy="0"
       cx="0.5"
       id="r">
      <stop
         stop-color="#f06b59"
         id="stop3079" />
      <stop
         offset="1"
         stop-color="#df2227"
         id="stop3081" />
    </radialGradient>
    <radialGradient
       r="0.76"
       cy="0.3"
       cx="0.65"
       id="g">
      <stop
         offset="0.65"
         stop-color="#4cb749"
         id="stop3084" />
      <stop
         offset="1"
         stop-color="#388b41"
         id="stop3086" />
    </radialGradient>
    <radialGradient
       r="0.8"
       cy="0.25"
       cx="0.36"
       id="y">
      <stop
         offset="0.6"
         stop-color="#FCD209"
         id="stop3089" />
      <stop
         offset="0.7"
         stop-color="#f7c616"
         id="stop3091" />
      <stop
         offset="1"
         stop-color="#bc821e"
         id="stop3093" />
    </radialGradient>
    <radialGradient
       r="1"
       cy="0"
       cx="0.5"
       spreadMethod="pad"
       id="cf">
      <stop
         offset="0.1"
         stop-color="#7FB3DF"
         id="stop3096" />
      <stop
         offset="0.9"
         stop-color="#0F5B94"
         id="stop3098" />
    </radialGradient>
    <radialGradient
       id="cb"
       r="1"
       cy="0"
       cx="0.5">
      <stop
         offset="0"
         stop-color="#F6F0EE"
         id="stop3101" />
      <stop
         offset="1"
         stop-color="#ddd"
         id="stop3103" />
    </radialGradient>
  </defs>
  <g
     id="g3893"
     style="opacity:0.07894737">
    <path
       id="path3105"
       fill-opacity="0.1"
       d="m198,148a70,70 0 0 0 -140,0l20,0a50,50 0 0 1 100,0" />
    <circle
       id="circle3107"
       stroke-width="9"
       stroke="url(#cb)"
       fill="url(#cf)"
       cy="127.6"
       cx="127.5"
       r="45" />
    <path
       id="path3109"
       fill="url(#r)"
       d="m228,78a112,112 0 0 0 -193,-13l45,78a50,50 0 0 1 47,-65" />
    <path
       id="path3111"
       fill="url(#g)"
       d="m35,65a112,112 0 0 0 84,174l47,-80a50,50 0 0 1 -86,-16" />
    <path
       id="path3113"
       fill="url(#y)"
       d="m119,239a112,112 0 0 0 109,-161l-101,0a50,50 0 0 1 39,81" />
    <path
       id="path3115"
       opacity="0.075"
       d="m35,65l45,78a50,50 0 0 1 2,-34l-45,-47" />
    <path
       id="path3117"
       opacity="0.05"
       d="m119,239l47,-80a50,50 0 0 1 -29,17l-20,63" />
    <path
       id="path3119"
       opacity="0.05"
       d="m228,78l-101,0a50,50 0 0 1 39,19l64,-16" />
  </g>
</svg>
