<?xml version="1.0" encoding="UTF-8" standalone="no"?>
<!-- Created with Inkscape (http://www.inkscape.org/) -->

<svg
   xmlns:dc="http://purl.org/dc/elements/1.1/"
   xmlns:cc="http://creativecommons.org/ns#"
   xmlns:rdf="http://www.w3.org/1999/02/22-rdf-syntax-ns#"
   xmlns:svg="http://www.w3.org/2000/svg"
   xmlns="http://www.w3.org/2000/svg"
   xmlns:xlink="http://www.w3.org/1999/xlink"
   xmlns:sodipodi="http://sodipodi.sourceforge.net/DTD/sodipodi-0.dtd"
   xmlns:inkscape="http://www.inkscape.org/namespaces/inkscape"
   width="360"
   height="360"
   id="svg2"
   version="1.1"
   inkscape:version="0.48.3.1 r9886"
   sodipodi:docname="drop6.svg">
  <defs
     id="defs4">
    <pattern
       inkscape:collect="always"
       xlink:href="#pattern5363"
       id="pattern5372"
       patternTransform="matrix(20.87345,12.051292,-12.051292,20.87345,29.33369,-277.79384)" />
    <pattern
       inkscape:collect="always"
       xlink:href="#pattern5339"
       id="pattern5363"
       patternTransform="matrix(20.87345,12.051292,-12.051292,20.87345,32.190833,-272.79384)" />
    <pattern
       inkscape:collect="always"
       xlink:href="#pattern5331"
       id="pattern5339"
       patternTransform="matrix(24.102584,0,0,24.102584,-108.51884,-252.34181)" />
    <pattern
       inkscape:collect="always"
       xlink:href="#Strips4_1"
       id="pattern5331"
       patternTransform="matrix(21.709613,0,0,21.709613,-78.527248,-211.7961)" />
    <pattern
       inkscape:stockid="Stripes 4:1"
       id="Strips4_1"
       patternTransform="translate(0,0) scale(10,10)"
       height="1"
       width="1.25"
       patternUnits="userSpaceOnUse"
       inkscape:collect="always">
      <rect
         id="rect4591"
         height="2"
         width="1"
         y="-0.5"
         x="0"
         style="fill:#bdced7;stroke:none" />
    </pattern>
  </defs>
  <sodipodi:namedview
     id="base"
     pagecolor="#ffffff"
     bordercolor="#666666"
     borderopacity="1.0"
     inkscape:pageopacity="0.0"
     inkscape:pageshadow="2"
     inkscape:zoom="1.4"
     inkscape:cx="-110.58895"
     inkscape:cy="148.20998"
     inkscape:document-units="px"
     inkscape:current-layer="layer1"
     showgrid="false"
     inkscape:window-width="1920"
     inkscape:window-height="1036"
     inkscape:window-x="0"
     inkscape:window-y="22"
     inkscape:window-maximized="1"
     showguides="true"
     inkscape:guide-bbox="true" />
  <metadata
     id="metadata7">
    <rdf:RDF>
      <cc:Work
         rdf:about="">
        <dc:format>image/svg+xml</dc:format>
        <dc:type
           rdf:resource="http://purl.org/dc/dcmitype/StillImage" />
        <dc:title />
      </cc:Work>
    </rdf:RDF>
  </metadata>
  <g
     inkscape:label="contour"
     inkscape:groupmode="layer"
     id="layer1"
     transform="translate(0,-692.36218)"
     style="display:inline;opacity:0.5">
    <rect
       style="fill:none;stroke:#bdced7;stroke-width:15.27172660999999998;stroke-miterlimit:4;stroke-opacity:1;stroke-dasharray:45.81517863999999918, 15.27172621000000063;stroke-dashoffset:0"
       id="rect3779"
       width="344.20987"
       height="344.20987"
       x="7.7022152"
       y="700.45007"
       ry="47.764233" />
  </g>
  <g
     inkscape:groupmode="layer"
     id="layer2"
     inkscape:label="drop"
     style="opacity:0.5">
    <path
       style="fill:url(#pattern5372);fill-opacity:1;stroke:none"
       d="M 75.96875 38.5625 C 73.330325 38.5625 70.765935 38.837883 68.28125 39.34375 C 65.796565 39.849617 63.405642 40.60107 61.125 41.5625 C 58.844358 42.52393 56.651295 43.695811 54.625 45.0625 C 52.598705 46.429189 50.721644 47.997106 49 49.71875 C 47.278356 51.440394 45.741689 53.317455 44.375 55.34375 C 43.008311 57.370045 41.80518 59.531858 40.84375 61.8125 C 39.88232 64.093142 39.162117 66.484065 38.65625 68.96875 C 38.150383 71.453435 37.875 74.017825 37.875 76.65625 L 37.875 284.03125 C 37.875 286.66967 38.150383 289.26531 38.65625 291.75 C 39.162117 294.23469 39.88232 296.62561 40.84375 298.90625 C 41.80518 301.18689 43.008311 303.34871 44.375 305.375 C 45.741689 307.40129 47.278356 309.27836 49 311 C 50.721644 312.72164 52.598705 314.28956 54.625 315.65625 C 56.651295 317.02294 58.844358 318.19482 61.125 319.15625 C 63.405642 320.11768 65.796565 320.86913 68.28125 321.375 C 70.765935 321.88087 73.330325 322.15625 75.96875 322.15625 L 283.34375 322.15625 C 285.98217 322.15625 288.54656 321.88087 291.03125 321.375 C 293.51594 320.86913 295.90686 320.11768 298.1875 319.15625 C 300.46814 318.19482 302.66121 317.02294 304.6875 315.65625 C 306.71379 314.28956 308.59086 312.72164 310.3125 311 C 312.03414 309.27836 313.57081 307.40129 314.9375 305.375 C 316.30419 303.34871 317.50732 301.18689 318.46875 298.90625 C 319.43018 296.62561 320.15038 294.23469 320.65625 291.75 C 321.16212 289.26531 321.4375 286.66967 321.4375 284.03125 L 321.4375 76.65625 C 321.4375 74.017825 321.16212 71.453435 320.65625 68.96875 C 320.15038 66.484065 319.43018 64.093142 318.46875 61.8125 C 317.50732 59.531858 316.30419 57.370045 314.9375 55.34375 C 313.57081 53.317455 312.03414 51.440394 310.3125 49.71875 C 308.59086 47.997106 306.71379 46.429189 304.6875 45.0625 C 302.66121 43.695811 300.46814 42.52393 298.1875 41.5625 C 295.90686 40.60107 293.51594 39.849617 291.03125 39.34375 C 288.54656 38.837883 285.98217 38.5625 283.34375 38.5625 L 75.96875 38.5625 z M 75.84375 85.5 L 94.9375 85.5 L 94.9375 158.84375 L 75.84375 158.84375 L 75.84375 85.5 z M 102.6875 85.5 L 118.625 85.5 L 129.34375 118.53125 L 129.34375 85.5 L 145.28125 85.5 L 145.28125 158.84375 L 128.5625 158.84375 L 118.625 125.5 L 118.625 158.84375 L 102.6875 158.84375 L 102.6875 85.5 z M 152.90625 85.5 L 172.125 85.5 C 177.32159 85.500073 181.31413 85.903074 184.09375 86.71875 C 186.90351 87.53457 188.98517 88.709212 190.375 90.25 C 191.79496 91.790926 192.7353 93.669522 193.21875 95.875 C 193.73232 98.050391 193.99996 101.40769 194 106 L 194 112.40625 C 193.99996 117.08929 193.52927 120.51117 192.5625 122.65625 C 191.59564 124.8014 189.81702 126.44569 187.21875 127.59375 C 184.65062 128.74187 181.2631 129.31253 177.09375 129.3125 L 171.96875 129.3125 L 171.96875 158.84375 L 152.90625 158.84375 L 152.90625 85.5 z M 199.21875 85.5 L 218.28125 85.5 L 218.28125 140.5 C 218.28123 143.70258 218.44889 145.74988 218.78125 146.65625 C 219.14378 147.53244 219.88002 147.96876 220.9375 147.96875 C 222.14599 147.96876 222.88638 147.49807 223.21875 146.53125 C 223.58128 145.53424 223.78122 143.21828 223.78125 139.5625 L 223.78125 85.5 L 242.84375 85.5 L 242.84375 134.53125 C 242.8437 140.09044 242.67501 143.98405 242.3125 146.25 C 241.9499 148.48577 240.87627 150.80069 239.09375 153.1875 C 237.31115 155.54411 234.96186 157.35502 232.03125 158.59375 C 229.13078 159.80227 225.70786 160.40625 221.75 160.40625 C 217.36911 160.40625 213.47862 159.66897 210.125 158.21875 C 206.77136 156.76853 204.2867 154.8889 202.625 152.5625 C 200.96328 150.23611 199.95837 147.78686 199.65625 145.21875 C 199.35412 142.62046 199.21875 137.18461 199.21875 128.90625 L 199.21875 85.5 z M 246.96875 85.5 L 288.6875 85.5 L 288.6875 100.15625 L 277.34375 100.15625 L 277.34375 158.84375 L 258.28125 158.84375 L 258.28125 100.15625 L 246.96875 100.15625 L 246.96875 85.5 z M 171.96875 98.03125 L 171.96875 116.71875 C 172.51256 116.74901 172.98221 116.75004 173.375 116.75 C 175.12732 116.75004 176.33529 116.346 177 115.5 C 177.69487 114.62387 178.06247 112.81296 178.0625 110.09375 L 178.0625 104.0625 C 178.06247 101.55489 177.66051 99.911632 176.875 99.15625 C 176.08944 98.400988 174.44618 98.031311 171.96875 98.03125 z M 154.5625 199.96875 C 158.49015 199.96882 162.01304 200.60717 165.125 201.90625 C 168.2671 203.17526 170.81529 205.08822 172.71875 207.65625 C 174.62212 210.22441 175.73115 213.04127 176.09375 216.0625 C 176.45626 219.08385 176.6562 224.35307 176.65625 231.90625 L 176.65625 244.46875 C 176.6562 251.84072 176.45626 257.07455 176.09375 260.15625 C 175.76136 263.20777 174.68669 265.99337 172.84375 268.53125 C 171.03093 271.06914 168.54939 273.01542 165.4375 274.375 C 162.32554 275.73458 158.70164 276.40625 154.5625 276.40625 C 150.6348 276.40625 147.11088 275.76894 143.96875 274.5 C 140.85681 273.20085 138.3409 271.28685 136.4375 268.71875 C 134.53408 266.15066 133.42505 263.3338 133.0625 260.3125 C 132.69994 257.29123 132.5 252.022 132.5 244.46875 L 132.5 231.90625 C 132.5 224.53435 132.66765 219.33281 133 216.28125 C 133.36255 213.19959 134.46847 210.3817 136.28125 207.84375 C 138.12423 205.30593 140.57556 203.35965 143.6875 202 C 146.79941 200.64049 150.42331 199.96882 154.5625 199.96875 z M 94.71875 201.5 L 128.15625 201.5 L 128.15625 216.1875 L 113.9375 260.1875 L 128.15625 260.1875 L 128.15625 274.875 L 93 274.875 L 93 264.21875 L 107.65625 216.1875 L 94.71875 216.1875 L 94.71875 201.5 z M 183.8125 201.5 L 199.75 201.5 L 210.46875 234.53125 L 210.46875 201.5 L 226.40625 201.5 L 226.40625 274.875 L 209.6875 274.875 L 199.75 241.53125 L 199.75 274.875 L 183.8125 274.875 L 183.8125 201.5 z M 234.03125 201.5 L 265.84375 201.5 L 265.84375 216.1875 L 253.09375 216.1875 L 253.09375 230.09375 L 265.03125 230.09375 L 265.03125 244.0625 L 253.09375 244.0625 L 253.09375 260.1875 L 267.09375 260.1875 L 267.09375 274.875 L 234.03125 274.875 L 234.03125 201.5 z M 154.65625 212.375 C 153.6592 212.37506 152.88756 212.77703 152.34375 213.5625 C 151.83011 214.31788 151.59373 216.56719 151.59375 220.34375 L 151.59375 254.625 C 151.59373 258.88504 151.76139 261.50299 152.09375 262.5 C 152.45628 263.49704 153.26228 264.00001 154.53125 264 C 155.83038 264.00001 156.66867 263.42935 157.03125 262.28125 C 157.39378 261.13317 157.56247 258.38296 157.5625 254.0625 L 157.5625 220.34375 C 157.56247 216.92975 157.36149 214.78041 156.96875 213.84375 C 156.60617 212.877 155.83453 212.37506 154.65625 212.375 z "
       id="path5366" />
  </g>
</svg>
