<?xml version="1.0" encoding="UTF-8" standalone="no"?>
<!-- Created with Inkscape (http://www.inkscape.org/) -->

<svg
   xmlns:dc="http://purl.org/dc/elements/1.1/"
   xmlns:cc="http://creativecommons.org/ns#"
   xmlns:rdf="http://www.w3.org/1999/02/22-rdf-syntax-ns#"
   xmlns:svg="http://www.w3.org/2000/svg"
   xmlns="http://www.w3.org/2000/svg"
   xmlns:sodipodi="http://sodipodi.sourceforge.net/DTD/sodipodi-0.dtd"
   xmlns:inkscape="http://www.inkscape.org/namespaces/inkscape"
   width="650"
   height="200"
   id="svg2"
   version="1.1"
   inkscape:version="0.48.3.1 r9886"
   sodipodi:docname="logofull.svg">
  <defs
     id="defs4" />
  <sodipodi:namedview
     id="base"
     pagecolor="#323838"
     bordercolor="#666666"
     borderopacity="1.0"
     inkscape:pageopacity="1"
     inkscape:pageshadow="2"
     inkscape:zoom="0.7"
     inkscape:cx="122.85899"
     inkscape:cy="209.47702"
     inkscape:document-units="px"
     inkscape:current-layer="layer1"
     showgrid="false"
     inkscape:window-width="1920"
     inkscape:window-height="1036"
     inkscape:window-x="0"
     inkscape:window-y="22"
     inkscape:window-maximized="1" />
  <metadata
     id="metadata7">
    <rdf:RDF>
      <cc:Work
         rdf:about="">
        <dc:format>image/svg+xml</dc:format>
        <dc:type
           rdf:resource="http://purl.org/dc/dcmitype/StillImage" />
      </cc:Work>
    </rdf:RDF>
  </metadata>
  <g
     inkscape:label="Calque 1"
     inkscape:groupmode="layer"
     id="layer1"
     transform="translate(0,-852.36218)">
    <rect
       style="fill:none;stroke:#bdced7;stroke-width:8;stroke-miterlimit:4.9000001;stroke-opacity:1;stroke-dasharray:24,24;stroke-dashoffset:0"
       id="rect2985"
       width="168.57143"
       height="168.57143"
       x="32.387962"
       y="867.6073"
       ry="47.764233" />
    <g
       style="font-size:108.95908356px;font-style:normal;font-variant:normal;font-weight:bold;font-stretch:normal;line-height:125%;letter-spacing:0px;word-spacing:0px;fill:#000000;fill-opacity:1;stroke:none;font-family:Impact;-inkscape-font-specification:Impact Bold"
       id="text3755">
      <path
         d="m 99.393025,907.90985 0,86.13513 -22.398327,0 0,-86.13513 22.398327,0"
         style="fill:#bdced7;fill-opacity:1"
         id="path3838" />
      <path
         d="m 158.5012,907.90985 0,86.13513 -19.63179,0 -11.65138,-39.15717 0,39.15717 -18.72735,0 0,-86.13513 18.72735,0 12.55583,38.78475 0,-38.78475 18.72734,0"
         style="fill:#bdced7;fill-opacity:1"
         id="path3840" />
      <path
         d="m 167.43925,907.90985 22.55793,0 c 6.10054,8e-5 10.78237,0.47891 14.04551,1.43647 3.29852,0.95773 5.76358,2.341 7.39517,4.14981 1.66697,1.80897 2.78422,4.00801 3.35177,6.59713 0.60291,2.5538 0.90439,6.52626 0.90445,11.9174 l 0,7.50158 c -6e-5,5.49766 -0.56755,9.50559 -1.70249,12.0238 -1.13504,2.5183 -3.22768,4.45133 -6.27792,5.7991 -3.01486,1.34783 -6.96958,2.02173 -11.86419,2.0217 l -6.01191,0 0,34.68814 -22.39832,0 0,-86.13513 m 22.39832,14.73714 0,21.9195 c 0.63841,0.0355 1.18817,0.0532 1.64929,0.0532 2.05714,4e-5 3.47587,-0.49651 4.25621,-1.48968 0.81574,-1.02853 1.22363,-3.1389 1.22366,-6.33112 l 0,-7.07595 c -3e-5,-2.94382 -0.46112,-4.85911 -1.38327,-5.74589 -0.92221,-0.88664 -2.8375,-1.33 -5.74589,-1.33007"
         style="fill:#ffffff;fill-opacity:1"
         id="path3842" />
      <path
         d="m 273.04656,907.90985 0,57.5653 c -5e-5,6.52621 -0.21286,11.11937 -0.63843,13.77949 -0.42568,2.62468 -1.6848,5.33801 -3.77739,8.14001 -2.09269,2.76654 -4.85922,4.87691 -8.29962,6.33112 -3.40501,1.41873 -7.43067,2.1281 -12.07701,2.1281 -5.14295,0 -9.6829,-0.85124 -13.61988,-2.55372 -3.93701,-1.70249 -6.88089,-3.91926 -8.83165,-6.65034 -1.95077,-2.73106 -3.10349,-5.604 -3.45817,-8.61883 -0.35469,-3.05027 -0.53203,-9.43459 -0.53203,-19.15297 l 0,-50.96816 22.39833,0 0,64.58805 c -3e-5,3.75967 0.19505,6.17152 0.58523,7.23556 0.42559,1.0286 1.2591,1.54289 2.50053,1.54288 1.4187,10e-6 2.32315,-0.56748 2.71333,-1.70249 0.42559,-1.17044 0.6384,-3.90151 0.63843,-8.19321 l 0,-63.47079 22.39833,0"
         style="fill:#ffffff;fill-opacity:1"
         id="path3844" />
      <path
         d="m 326.83448,907.90985 0,17.23767 -13.30067,0 0,68.89746 -22.39833,0 0,-68.89746 -13.24747,0 0,-17.23767 48.94647,0"
         style="fill:#ffffff;fill-opacity:1"
         id="path3846" />
      <path
         d="m 364.76798,976.4881 0,17.55688 -16.22682,0 0,-17.55688 16.22682,0"
         style="fill:#ffffff;fill-opacity:1"
         id="path3848" />
      <path
         d="m 427.91957,907.90985 0,17.23767 -16.70564,51.6598 16.70564,0 0,17.23766 -41.28528,0 0,-12.50263 17.23767,-56.39483 -15.21597,0 0,-17.23767 39.26358,0"
         style="fill:#ffffff;fill-opacity:1"
         id="path3850" />
      <path
         d="m 484.84642,958.34599 c -6e-5,8.65433 -0.21287,14.79036 -0.63843,18.40812 -0.39021,3.58233 -1.66707,6.86316 -3.8306,9.8425 -2.12815,2.97935 -5.01883,5.26707 -8.67203,6.86314 -3.65329,1.59608 -7.9095,2.39412 -12.76864,2.39412 -4.61093,0 -8.76073,-0.74483 -12.44943,-2.23451 -3.65327,-1.52514 -6.59714,-3.79512 -8.83165,-6.80994 -2.23451,-3.01481 -3.56458,-6.29564 -3.9902,-9.8425 -0.42562,-3.54682 -0.63843,-9.75379 -0.63843,-18.62093 l 0,-14.73715 c 0,-8.65424 0.19507,-14.77254 0.58523,-18.35492 0.42562,-3.61771 1.70248,-6.91627 3.83059,-9.8957 2.16357,-2.97927 5.07198,-5.26698 8.72524,-6.86314 3.65323,-1.596 7.90944,-2.39404 12.76865,-2.39412 4.61086,8e-5 8.74293,0.76266 12.39622,2.28771 3.68867,1.48976 6.65029,3.74201 8.88485,6.75674 2.23446,3.0149 3.56452,6.29572 3.9902,9.8425 0.42556,3.54691 0.63837,9.75388 0.63843,18.62093 l 0,14.73715 m -22.39833,-28.30383 c -3e-5,-4.00787 -0.23058,-6.56159 -0.69163,-7.66118 -0.42566,-1.13492 -1.3301,-1.70242 -2.71334,-1.70249 -1.17049,7e-5 -2.07493,0.46116 -2.71334,1.38327 -0.60299,0.88678 -0.90447,3.54691 -0.90444,7.9804 l 0,40.22123 c -3e-5,5.00107 0.19505,8.08682 0.58523,9.25726 0.42559,1.17047 1.38324,1.7557 2.87294,1.75569 1.52512,10e-6 2.5005,-0.67389 2.92615,-2.0217 0.42559,-1.34779 0.6384,-4.55768 0.63843,-9.62969 l 0,-39.58279"
         style="fill:#ffffff;fill-opacity:1"
         id="path3852" />
      <path
         d="m 543.26297,907.90985 0,86.13513 -19.63179,0 -11.65139,-39.15717 0,39.15717 -18.72734,0 0,-86.13513 18.72734,0 12.55583,38.78475 0,-38.78475 18.72735,0"
         style="fill:#ffffff;fill-opacity:1"
         id="path3854" />
      <path
         d="m 552.201,907.90985 37.34828,0 0,17.23767 -14.94996,0 0,16.33322 13.99231,0 0,16.38642 -13.99231,0 0,18.94016 16.43963,0 0,17.23766 -38.83795,0 0,-86.13513"
         style="fill:#ffffff;fill-opacity:1"
         id="path3856" />
    </g>
  </g>
</svg>
