<?xml version="1.0" encoding="UTF-8" standalone="no"?>
<!-- Created with Inkscape (http://www.inkscape.org/) -->

<svg
   xmlns:dc="http://purl.org/dc/elements/1.1/"
   xmlns:cc="http://creativecommons.org/ns#"
   xmlns:rdf="http://www.w3.org/1999/02/22-rdf-syntax-ns#"
   xmlns:svg="http://www.w3.org/2000/svg"
   xmlns="http://www.w3.org/2000/svg"
   xmlns:sodipodi="http://sodipodi.sourceforge.net/DTD/sodipodi-0.dtd"
   xmlns:inkscape="http://www.inkscape.org/namespaces/inkscape"
   width="650"
   height="200"
   id="svg2"
   version="1.1"
   inkscape:version="0.48.3.1 r9886"
   sodipodi:docname="logofullwithslogan.svg">
  <defs
     id="defs4" />
  <sodipodi:namedview
     id="base"
     pagecolor="#323838"
     bordercolor="#666666"
     borderopacity="1.0"
     inkscape:pageopacity="1"
     inkscape:pageshadow="2"
     inkscape:zoom="0.49497475"
     inkscape:cx="740.01004"
     inkscape:cy="-429.69208"
     inkscape:document-units="px"
     inkscape:current-layer="layer1"
     showgrid="false"
     inkscape:window-width="1920"
     inkscape:window-height="1036"
     inkscape:window-x="0"
     inkscape:window-y="22"
     inkscape:window-maximized="1" />
  <metadata
     id="metadata7">
    <rdf:RDF>
      <cc:Work
         rdf:about="">
        <dc:format>image/svg+xml</dc:format>
        <dc:type
           rdf:resource="http://purl.org/dc/dcmitype/StillImage" />
        <dc:title></dc:title>
      </cc:Work>
    </rdf:RDF>
  </metadata>
  <g
     inkscape:label="Calque 1"
     inkscape:groupmode="layer"
     id="layer1"
     transform="translate(0,-852.36218)">
    <rect
       style="fill:none;stroke:#bdced7;stroke-width:8;stroke-miterlimit:4.9000001;stroke-opacity:1;stroke-dasharray:24, 24;stroke-dashoffset:0"
       id="rect2985"
       width="168.57143"
       height="168.57143"
       x="40.469181"
       y="864.65375"
       ry="47.764233" />
    <g
       style="font-size:108.95908356px;font-style:normal;font-variant:normal;font-weight:bold;font-stretch:normal;line-height:125%;letter-spacing:0px;word-spacing:0px;fill:#000000;fill-opacity:1;stroke:none;font-family:Impact;-inkscape-font-specification:Impact Bold"
       id="text3755"
       transform="translate(8.0812204,-2.9535665)">
      <path
         d="m 99.393025,907.90985 0,86.13513 -22.398327,0 0,-86.13513 22.398327,0"
         style="fill:#bdced7;fill-opacity:1"
         id="path3838"
         inkscape:connector-curvature="0" />
      <path
         d="m 158.5012,907.90985 0,86.13513 -19.63179,0 -11.65138,-39.15717 0,39.15717 -18.72735,0 0,-86.13513 18.72735,0 12.55583,38.78475 0,-38.78475 18.72734,0"
         style="fill:#bdced7;fill-opacity:1"
         id="path3840"
         inkscape:connector-curvature="0" />
      <path
         d="m 167.43925,907.90985 22.55793,0 c 6.10054,8e-5 10.78237,0.47891 14.04551,1.43647 3.29852,0.95773 5.76358,2.341 7.39517,4.14981 1.66697,1.80897 2.78422,4.00801 3.35177,6.59713 0.60291,2.5538 0.90439,6.52626 0.90445,11.9174 l 0,7.50158 c -6e-5,5.49766 -0.56755,9.50559 -1.70249,12.0238 -1.13504,2.5183 -3.22768,4.45133 -6.27792,5.7991 -3.01486,1.34783 -6.96958,2.02173 -11.86419,2.0217 l -6.01191,0 0,34.68814 -22.39832,0 0,-86.13513 m 22.39832,14.73714 0,21.9195 c 0.63841,0.0355 1.18817,0.0532 1.64929,0.0532 2.05714,4e-5 3.47587,-0.49651 4.25621,-1.48968 0.81574,-1.02853 1.22363,-3.1389 1.22366,-6.33112 l 0,-7.07595 c -3e-5,-2.94382 -0.46112,-4.85911 -1.38327,-5.74589 -0.92221,-0.88664 -2.8375,-1.33 -5.74589,-1.33007"
         style="fill:#ffffff;fill-opacity:1"
         id="path3842"
         inkscape:connector-curvature="0" />
      <path
         d="m 273.04656,907.90985 0,57.5653 c -5e-5,6.52621 -0.21286,11.11937 -0.63843,13.77949 -0.42568,2.62468 -1.6848,5.33801 -3.77739,8.14001 -2.09269,2.76654 -4.85922,4.87691 -8.29962,6.33112 -3.40501,1.41873 -7.43067,2.1281 -12.07701,2.1281 -5.14295,0 -9.6829,-0.85124 -13.61988,-2.55372 -3.93701,-1.70249 -6.88089,-3.91926 -8.83165,-6.65034 -1.95077,-2.73106 -3.10349,-5.604 -3.45817,-8.61883 -0.35469,-3.05027 -0.53203,-9.43459 -0.53203,-19.15297 l 0,-50.96816 22.39833,0 0,64.58805 c -3e-5,3.75967 0.19505,6.17152 0.58523,7.23556 0.42559,1.0286 1.2591,1.54289 2.50053,1.54288 1.4187,10e-6 2.32315,-0.56748 2.71333,-1.70249 0.42559,-1.17044 0.6384,-3.90151 0.63843,-8.19321 l 0,-63.47079 22.39833,0"
         style="fill:#ffffff;fill-opacity:1"
         id="path3844"
         inkscape:connector-curvature="0" />
      <path
         d="m 326.83448,907.90985 0,17.23767 -13.30067,0 0,68.89746 -22.39833,0 0,-68.89746 -13.24747,0 0,-17.23767 48.94647,0"
         style="fill:#ffffff;fill-opacity:1"
         id="path3846"
         inkscape:connector-curvature="0" />
      <path
         d="m 364.76798,976.4881 0,17.55688 -16.22682,0 0,-17.55688 16.22682,0"
         style="fill:#ffffff;fill-opacity:1"
         id="path3848"
         inkscape:connector-curvature="0" />
      <path
         d="m 427.91957,907.90985 0,17.23767 -16.70564,51.6598 16.70564,0 0,17.23766 -41.28528,0 0,-12.50263 17.23767,-56.39483 -15.21597,0 0,-17.23767 39.26358,0"
         style="fill:#ffffff;fill-opacity:1"
         id="path3850"
         inkscape:connector-curvature="0" />
      <path
         d="m 484.84642,958.34599 c -6e-5,8.65433 -0.21287,14.79036 -0.63843,18.40812 -0.39021,3.58233 -1.66707,6.86316 -3.8306,9.8425 -2.12815,2.97935 -5.01883,5.26707 -8.67203,6.86314 -3.65329,1.59608 -7.9095,2.39412 -12.76864,2.39412 -4.61093,0 -8.76073,-0.74483 -12.44943,-2.23451 -3.65327,-1.52514 -6.59714,-3.79512 -8.83165,-6.80994 -2.23451,-3.01481 -3.56458,-6.29564 -3.9902,-9.8425 -0.42562,-3.54682 -0.63843,-9.75379 -0.63843,-18.62093 l 0,-14.73715 c 0,-8.65424 0.19507,-14.77254 0.58523,-18.35492 0.42562,-3.61771 1.70248,-6.91627 3.83059,-9.8957 2.16357,-2.97927 5.07198,-5.26698 8.72524,-6.86314 3.65323,-1.596 7.90944,-2.39404 12.76865,-2.39412 4.61086,8e-5 8.74293,0.76266 12.39622,2.28771 3.68867,1.48976 6.65029,3.74201 8.88485,6.75674 2.23446,3.0149 3.56452,6.29572 3.9902,9.8425 0.42556,3.54691 0.63837,9.75388 0.63843,18.62093 l 0,14.73715 m -22.39833,-28.30383 c -3e-5,-4.00787 -0.23058,-6.56159 -0.69163,-7.66118 -0.42566,-1.13492 -1.3301,-1.70242 -2.71334,-1.70249 -1.17049,7e-5 -2.07493,0.46116 -2.71334,1.38327 -0.60299,0.88678 -0.90447,3.54691 -0.90444,7.9804 l 0,40.22123 c -3e-5,5.00107 0.19505,8.08682 0.58523,9.25726 0.42559,1.17047 1.38324,1.7557 2.87294,1.75569 1.52512,10e-6 2.5005,-0.67389 2.92615,-2.0217 0.42559,-1.34779 0.6384,-4.55768 0.63843,-9.62969 l 0,-39.58279"
         style="fill:#ffffff;fill-opacity:1"
         id="path3852"
         inkscape:connector-curvature="0" />
      <path
         d="m 543.26297,907.90985 0,86.13513 -19.63179,0 -11.65139,-39.15717 0,39.15717 -18.72734,0 0,-86.13513 18.72734,0 12.55583,38.78475 0,-38.78475 18.72735,0"
         style="fill:#ffffff;fill-opacity:1"
         id="path3854"
         inkscape:connector-curvature="0" />
      <path
         d="m 552.201,907.90985 37.34828,0 0,17.23767 -14.94996,0 0,16.33322 13.99231,0 0,16.38642 -13.99231,0 0,18.94016 16.43963,0 0,17.23766 -38.83795,0 0,-86.13513"
         style="fill:#ffffff;fill-opacity:1"
         id="path3856"
         inkscape:connector-curvature="0" />
    </g>
    <g
       style="font-size:27px;font-style:normal;font-variant:normal;font-weight:bold;font-stretch:normal;line-height:125%;letter-spacing:0px;word-spacing:0px;fill:#c3c3c3;fill-opacity:1;stroke:none;font-family:Impact;-inkscape-font-specification:Impact Bold"
       id="text4653">
      <path
         d="m 226.36076,1014.0643 -6.53906,0 -3.22998,6.1304 -2.4917,0 10.53369,-19.2744 2.29395,0 2.42578,19.2744 -2.24121,0 -0.75147,-6.1304 m -0.2373,-2.0566 -0.46143,-3.9419 c -0.21094,-1.5732 -0.33839,-3.1113 -0.38232,-4.6143 -0.32521,0.7735 -0.68116,1.5425 -1.06787,2.3072 -0.37794,0.7646 -1.47218,2.8476 -3.28272,6.249 l 5.19434,0"
         style="font-style:italic;font-weight:normal;fill:#c3c3c3;font-family:Open Sans;-inkscape-font-specification:Open Sans Italic"
         id="path5174" />
      <path
         d="m 233.58537,1020.1947 -2.21484,0 4.37695,-20.51367 2.21485,0 -4.37696,20.51367"
         style="font-style:italic;font-weight:normal;fill:#c3c3c3;font-family:Open Sans;-inkscape-font-specification:Open Sans Italic"
         id="path5176" />
      <path
         d="m 240.44084,1020.1947 -2.21484,0 4.37695,-20.51367 2.21484,0 -4.37695,20.51367"
         style="font-style:italic;font-weight:normal;fill:#c3c3c3;font-family:Open Sans;-inkscape-font-specification:Open Sans Italic"
         id="path5178" />
      <path
         d="m 252.63567,1005.7455 2.21484,0 0.97559,7.185 c 0.0879,0.6065 0.17138,1.503 0.25048,2.6895 0.0879,1.1777 0.13183,2.127 0.13184,2.8477 l 0.0791,0 c 0.30761,-0.7647 0.68994,-1.6436 1.14697,-2.6368 0.45703,-0.9931 0.79541,-1.6787 1.01514,-2.0566 l 4.28467,-8.0288 2.34668,0 -9.17578,16.9014 c -0.81739,1.5117 -1.62598,2.562 -2.42578,3.1508 -0.79981,0.5889 -1.76221,0.8833 -2.88721,0.8833 -0.63281,0 -1.24805,-0.092 -1.8457,-0.2768 l 0,-1.7798 c 0.55371,0.1582 1.12939,0.2373 1.72705,0.2373 0.7207,0 1.33593,-0.2241 1.8457,-0.6724 0.51855,-0.4394 1.01953,-1.0942 1.50293,-1.9643 l 1.00195,-1.793 -2.18847,-14.6865"
         style="font-style:italic;font-weight:normal;fill:#c3c3c3;font-family:Open Sans;-inkscape-font-specification:Open Sans Italic"
         id="path5180" />
      <path
         d="m 272.31877,1005.5609 c 1.66991,0 2.98827,0.4966 3.95508,1.4898 0.96678,0.9843 1.45018,2.3423 1.45019,4.0737 -10e-6,1.6523 -0.31642,3.2124 -0.94921,4.6802 -0.63283,1.4677 -1.48976,2.6015 -2.5708,3.4013 -1.08107,0.7998 -2.30275,1.1997 -3.66504,1.1997 -1.68751,0 -3.01026,-0.4965 -3.96827,-1.4897 -0.95801,-0.9932 -1.43701,-2.3511 -1.43701,-4.0737 0,-1.67 0.3208,-3.2388 0.96241,-4.7066 0.64159,-1.4765 1.50732,-2.6059 2.59716,-3.3882 1.08984,-0.791 2.29834,-1.1865 3.62549,-1.1865 m 3.11133,5.2603 c -10e-6,-1.0108 -0.27687,-1.8281 -0.83057,-2.4522 -0.54493,-0.6328 -1.2876,-0.9492 -2.22802,-0.9492 -0.95802,0 -1.81935,0.3252 -2.58399,0.9756 -0.75586,0.6504 -1.34473,1.5557 -1.7666,2.7158 -0.41309,1.1514 -0.61963,2.4346 -0.61963,3.8496 0,1.1514 0.27685,2.0435 0.83057,2.6763 0.56249,0.624 1.36669,0.936 2.41259,0.936 0.91406,0 1.73584,-0.3208 2.46534,-0.9624 0.72948,-0.6416 1.29637,-1.5512 1.70068,-2.729 0.41308,-1.1865 0.61962,-2.54 0.61963,-4.0605"
         style="font-style:italic;font-weight:normal;fill:#c3c3c3;font-family:Open Sans;-inkscape-font-specification:Open Sans Italic"
         id="path5182" />
      <path
         d="m 284.92229,1005.7455 -1.97754,9.1626 c -0.15821,0.7822 -0.23731,1.3931 -0.23731,1.8325 0,1.2568 0.64599,1.8853 1.93799,1.8853 0.77343,0 1.53369,-0.2637 2.28076,-0.7911 0.74706,-0.5273 1.40624,-1.2832 1.97754,-2.2675 0.57128,-0.9844 1.00634,-2.1709 1.30518,-3.5596 l 1.31836,-6.2622 2.18847,0 -3.04541,14.4492 -1.83252,0 0.29004,-2.6763 -0.1582,0 c -0.86134,1.0987 -1.68311,1.8633 -2.46533,2.294 -0.78224,0.4306 -1.59083,0.646 -2.42578,0.646 -1.12501,0 -2.00831,-0.3032 -2.64991,-0.9097 -0.6416,-0.6152 -0.9624,-1.4897 -0.9624,-2.6235 0,-0.5449 0.0967,-1.3008 0.29004,-2.2676 l 1.92481,-8.9121 2.24121,0"
         style="font-style:italic;font-weight:normal;fill:#c3c3c3;font-family:Open Sans;-inkscape-font-specification:Open Sans Italic"
         id="path5184" />
      <path
         d="m 304.49992,1005.4818 c 0.60644,0 1.13378,0.062 1.58203,0.1846 l -0.4746,1.9775 c -0.46584,-0.1142 -0.92726,-0.1714 -1.38428,-0.1714 -0.79982,0 -1.55128,0.2637 -2.2544,0.791 -0.69434,0.5274 -1.30518,1.2613 -1.83252,2.2017 -0.51856,0.9317 -0.90088,1.9688 -1.14697,3.1113 l -1.41064,6.6182 -2.21485,0 3.08496,-14.4492 1.83252,0 -0.29004,2.6763 0.13184,0 c 0.63281,-0.835 1.15576,-1.4327 1.56885,-1.793 0.41308,-0.3691 0.84374,-0.6504 1.29199,-0.8438 0.45702,-0.2021 0.96239,-0.3032 1.51611,-0.3032"
         style="font-style:italic;font-weight:normal;fill:#c3c3c3;font-family:Open Sans;-inkscape-font-specification:Open Sans Italic"
         id="path5186" />
      <path
         d="m 320.72893,1005.5082 c 1.70507,0 2.93993,0.835 3.70459,2.5049 l 0.13183,0 c 0.14941,-1.3623 0.34716,-2.5664 0.59327,-3.6123 l 1.02832,-4.71977 2.18847,0 -4.35058,20.51367 -1.83252,0 0.29004,-2.7554 -0.10547,0 c -0.88771,1.0987 -1.71827,1.8765 -2.4917,2.3335 -0.77345,0.4571 -1.57325,0.6856 -2.39942,0.6856 -1.22168,0 -2.17529,-0.4307 -2.86084,-1.292 -0.68554,-0.8613 -1.02832,-2.0567 -1.02832,-3.586 0,-1.8808 0.31641,-3.6035 0.94922,-5.1679 0.63281,-1.5645 1.48535,-2.773 2.55762,-3.6255 1.08105,-0.8525 2.28954,-1.2788 3.62549,-1.2788 m -2.50489,13.1177 c 0.82617,0 1.67871,-0.4087 2.55762,-1.2261 0.8789,-0.8262 1.57323,-1.8765 2.08301,-3.1509 0.51854,-1.2832 0.77782,-2.5884 0.77783,-3.9155 -10e-6,-0.9756 -0.23731,-1.7183 -0.71191,-2.2281 -0.47462,-0.5097 -1.16456,-0.7646 -2.06983,-0.7646 -0.8877,0 -1.71387,0.3648 -2.47851,1.0942 -0.75587,0.7208 -1.36671,1.7403 -1.83252,3.0586 -0.45704,1.3096 -0.68555,2.6895 -0.68555,4.1397 0,1.9951 0.78662,2.9927 2.35986,2.9927"
         style="font-style:italic;font-weight:normal;fill:#c3c3c3;font-family:Open Sans;-inkscape-font-specification:Open Sans Italic"
         id="path5188" />
      <path
         d="m 336.3383,1005.4818 c 0.80859,0 1.52929,0.2198 2.16211,0.6592 0.6328,0.4307 1.12499,1.0547 1.47656,1.8721 l 0.14502,0 0.8833,-2.2676 1.67432,0 -3.07178,14.4492 -1.75341,0 0.34277,-2.7554 -0.10547,0 c -1.57325,2.0127 -3.22999,3.0191 -4.97021,3.0191 -1.22169,0 -2.17969,-0.4351 -2.87403,-1.3052 -0.69434,-0.8701 -1.0415,-2.061 -1.0415,-3.5728 0,-1.8281 0.31201,-3.5244 0.93603,-5.0888 0.62402,-1.5645 1.48535,-2.7905 2.58399,-3.6782 1.09862,-0.8877 2.30273,-1.3316 3.6123,-1.3316 m -2.50488,13.1441 c 0.85253,0 1.70068,-0.4043 2.54443,-1.2129 0.84374,-0.8174 1.52929,-1.8765 2.05664,-3.1773 0.52734,-1.3095 0.79101,-2.6191 0.79102,-3.9287 -10e-6,-0.9053 -0.24611,-1.626 -0.73828,-2.1621 -0.4922,-0.5361 -1.13819,-0.8042 -1.93799,-0.8042 -0.91407,0 -1.76661,0.3779 -2.55762,1.1338 -0.78223,0.7559 -1.39746,1.7798 -1.8457,3.0718 -0.44825,1.292 -0.67237,2.6543 -0.67236,4.0869 -1e-5,1.0019 0.20654,1.7534 0.61963,2.2544 0.41308,0.4922 0.99315,0.7383 1.74023,0.7383"
         style="font-style:italic;font-weight:normal;fill:#c3c3c3;font-family:Open Sans;-inkscape-font-specification:Open Sans Italic"
         id="path5190" />
      <path
         d="m 348.36174,1018.6522 c 0.48339,0 1.1162,-0.1142 1.89844,-0.3428 l 0,1.7007 c -0.29884,0.1231 -0.66798,0.2285 -1.10742,0.3164 -0.43946,0.088 -0.79103,0.1319 -1.05469,0.1319 -1.09864,0 -1.94239,-0.2593 -2.53125,-0.7779 -0.58008,-0.5273 -0.87012,-1.3095 -0.87012,-2.3466 0,-0.5801 0.0791,-1.2393 0.23731,-1.9776 l 1.67431,-7.9365 -2.26758,0 0.18457,-0.9624 2.43897,-1.0283 1.64795,-3.0059 1.29199,0 -0.7251,3.3223 3.61231,0 -0.34278,1.6743 -3.59912,0 -1.70068,7.9629 c -0.15821,0.7646 -0.23731,1.3447 -0.23731,1.7402 0,0.4922 0.12744,0.8701 0.38233,1.1338 0.25488,0.2637 0.61083,0.3955 1.06787,0.3955"
         style="font-style:italic;font-weight:normal;fill:#c3c3c3;font-family:Open Sans;-inkscape-font-specification:Open Sans Italic"
         id="path5192" />
      <path
         d="m 360.33244,1005.4818 c 0.80859,0 1.52929,0.2198 2.16211,0.6592 0.6328,0.4307 1.12499,1.0547 1.47657,1.8721 l 0.14501,0 0.88331,-2.2676 1.67431,0 -3.07178,14.4492 -1.75341,0 0.34277,-2.7554 -0.10547,0 c -1.57325,2.0127 -3.22999,3.0191 -4.97021,3.0191 -1.22169,0 -2.17969,-0.4351 -2.87403,-1.3052 -0.69433,-0.8701 -1.0415,-2.061 -1.0415,-3.5728 0,-1.8281 0.31201,-3.5244 0.93603,-5.0888 0.62402,-1.5645 1.48535,-2.7905 2.58399,-3.6782 1.09863,-0.8877 2.30273,-1.3316 3.6123,-1.3316 m -2.50488,13.1441 c 0.85253,0 1.70068,-0.4043 2.54443,-1.2129 0.84374,-0.8174 1.52929,-1.8765 2.05664,-3.1773 0.52734,-1.3095 0.79101,-2.6191 0.79102,-3.9287 -10e-6,-0.9053 -0.2461,-1.626 -0.73828,-2.1621 -0.4922,-0.5361 -1.13819,-0.8042 -1.93799,-0.8042 -0.91407,0 -1.76661,0.3779 -2.55762,1.1338 -0.78223,0.7559 -1.39746,1.7798 -1.8457,3.0718 -0.44825,1.292 -0.67237,2.6543 -0.67236,4.0869 -10e-6,1.0019 0.20654,1.7534 0.61963,2.2544 0.41308,0.4922 0.99315,0.7383 1.74023,0.7383"
         style="font-style:italic;font-weight:normal;fill:#c3c3c3;font-family:Open Sans;-inkscape-font-specification:Open Sans Italic"
         id="path5194" />
      <path
         d="m 382.58635,1005.4818 c 0.80858,0 1.52929,0.2198 2.16211,0.6592 0.6328,0.4307 1.12499,1.0547 1.47656,1.8721 l 0.14502,0 0.8833,-2.2676 1.67432,0 -3.07178,14.4492 -1.75342,0 0.34278,-2.7554 -0.10547,0 c -1.57325,2.0127 -3.22999,3.0191 -4.97022,3.0191 -1.22168,0 -2.17969,-0.4351 -2.87402,-1.3052 -0.69434,-0.8701 -1.04151,-2.061 -1.0415,-3.5728 -10e-6,-1.8281 0.31201,-3.5244 0.93603,-5.0888 0.62402,-1.5645 1.48535,-2.7905 2.58398,-3.6782 1.09863,-0.8877 2.30273,-1.3316 3.61231,-1.3316 m -2.50488,13.1441 c 0.85253,0 1.70067,-0.4043 2.54443,-1.2129 0.84374,-0.8174 1.52929,-1.8765 2.05664,-3.1773 0.52733,-1.3095 0.79101,-2.6191 0.79102,-3.9287 -1e-5,-0.9053 -0.24611,-1.626 -0.73828,-2.1621 -0.4922,-0.5361 -1.1382,-0.8042 -1.93799,-0.8042 -0.91407,0 -1.76661,0.3779 -2.55762,1.1338 -0.78223,0.7559 -1.39747,1.7798 -1.8457,3.0718 -0.44825,1.292 -0.67237,2.6543 -0.67237,4.0869 0,1.0019 0.20654,1.7534 0.61963,2.2544 0.41308,0.4922 0.99316,0.7383 1.74024,0.7383"
         style="font-style:italic;font-weight:normal;fill:#c3c3c3;font-family:Open Sans;-inkscape-font-specification:Open Sans Italic"
         id="path5196" />
      <path
         d="m 399.31633,1005.4818 c 0.60643,0 1.13378,0.062 1.58203,0.1846 l -0.47461,1.9775 c -0.46583,-0.1142 -0.92725,-0.1714 -1.38428,-0.1714 -0.79981,0 -1.55127,0.2637 -2.25439,0.791 -0.69434,0.5274 -1.30518,1.2613 -1.83252,2.2017 -0.51856,0.9317 -0.90088,1.9688 -1.14697,3.1113 l -1.41065,6.6182 -2.21484,0 3.08496,-14.4492 1.83252,0 -0.29004,2.6763 0.13184,0 c 0.6328,-0.835 1.15575,-1.4327 1.56884,-1.793 0.41308,-0.3691 0.84375,-0.6504 1.292,-0.8438 0.45702,-0.2021 0.96239,-0.3032 1.51611,-0.3032"
         style="font-style:italic;font-weight:normal;fill:#c3c3c3;font-family:Open Sans;-inkscape-font-specification:Open Sans Italic"
         id="path5198" />
      <path
         d="m 406.06633,1020.4584 c -1.61719,0 -2.88721,-0.479 -3.81006,-1.437 -0.92285,-0.958 -1.38428,-2.2852 -1.38428,-3.9815 0,-1.6523 0.3252,-3.2343 0.97559,-4.7461 0.65918,-1.5205 1.52929,-2.7026 2.61035,-3.5464 1.08105,-0.8437 2.27197,-1.2656 3.57276,-1.2656 1.34471,0 2.35545,0.2945 3.03222,0.8833 0.67675,0.5801 1.01513,1.3931 1.01514,2.439 -1e-5,1.582 -0.72951,2.8257 -2.18848,3.7309 -1.45899,0.8965 -3.54639,1.3448 -6.2622,1.3448 l -0.43506,0 -0.0527,1.0546 c 0,1.1514 0.26806,2.0523 0.8042,2.7027 0.54492,0.6416 1.38427,0.9624 2.51807,0.9624 0.5537,0 1.1206,-0.079 1.70068,-0.2373 0.58886,-0.1582 1.31835,-0.4483 2.18848,-0.8701 l 0,1.9248 c -0.82618,0.3867 -1.55568,0.6548 -2.18848,0.8042 -0.63282,0.1582 -1.33155,0.2373 -2.09619,0.2373 m 1.83252,-13.0913 c -0.90528,0 -1.75782,0.4131 -2.55762,1.2392 -0.79102,0.8262 -1.39746,1.9732 -1.81933,3.4409 l 0.1582,0 c 2.0039,0 3.53759,-0.2592 4.60107,-0.7778 1.07226,-0.5273 1.60839,-1.2876 1.6084,-2.2808 -10e-6,-0.4658 -0.16261,-0.8525 -0.48779,-1.1601 -0.31642,-0.3076 -0.81739,-0.4614 -1.50293,-0.4614"
         style="font-style:italic;font-weight:normal;fill:#c3c3c3;font-family:Open Sans;-inkscape-font-specification:Open Sans Italic"
         id="path5200" />
      <path
         d="m 427.12053,1020.4584 c -0.85255,0 -1.60401,-0.2241 -2.2544,-0.6724 -0.6416,-0.4482 -1.125,-1.0591 -1.45019,-1.8325 l -0.13184,0 -0.92285,2.2412 -1.64795,0 4.35059,-20.51367 2.21484,0 c -0.44825,2.12697 -0.79541,3.75737 -1.0415,4.89107 -0.23731,1.1251 -0.5669,2.4434 -0.98877,3.9551 l 0.11865,0 c 0.81738,-1.0371 1.62158,-1.7973 2.4126,-2.2807 0.79979,-0.4922 1.62157,-0.7383 2.46533,-0.7383 1.23925,0 2.20604,0.4351 2.90039,1.3052 0.69432,0.8701 1.04149,2.0654 1.04151,3.5859 -2e-5,1.8369 -0.30324,3.5376 -0.90967,5.102 -0.59767,1.5557 -1.43703,2.773 -2.51807,3.6519 -1.07227,0.8701 -2.28516,1.3052 -3.63867,1.3052 m 2.45215,-13.1177 c -0.84376,0 -1.70509,0.4175 -2.58399,1.2524 -0.87012,0.835 -1.56446,1.8853 -2.083,3.1509 -0.50977,1.2657 -0.76466,2.562 -0.76465,3.8892 -10e-6,0.9668 0.24169,1.7095 0.72509,2.228 0.49219,0.5098 1.19971,0.7647 2.12256,0.7647 0.87011,0 1.67871,-0.356 2.42578,-1.0679 0.75585,-0.7119 1.3623,-1.7227 1.81934,-3.0322 0.45702,-1.3184 0.68554,-2.7159 0.68555,-4.1924 -10e-6,-1.9951 -0.78224,-2.9927 -2.34668,-2.9927"
         style="font-style:italic;font-weight:normal;fill:#c3c3c3;font-family:Open Sans;-inkscape-font-specification:Open Sans Italic"
         id="path5202" />
      <path
         d="m 442.03117,1020.4584 c -1.61719,0 -2.88721,-0.479 -3.81005,-1.437 -0.92286,-0.958 -1.38428,-2.2852 -1.38428,-3.9815 0,-1.6523 0.32519,-3.2343 0.97558,-4.7461 0.65918,-1.5205 1.5293,-2.7026 2.61036,-3.5464 1.08104,-0.8437 2.27196,-1.2656 3.57275,-1.2656 1.34472,0 2.35546,0.2945 3.03223,0.8833 0.67674,0.5801 1.01512,1.3931 1.01513,2.439 -10e-6,1.582 -0.7295,2.8257 -2.18847,3.7309 -1.459,0.8965 -3.5464,1.3448 -6.26221,1.3448 l -0.43506,0 -0.0527,1.0546 c -1e-5,1.1514 0.26806,2.0523 0.8042,2.7027 0.54491,0.6416 1.38427,0.9624 2.51806,0.9624 0.55371,0 1.1206,-0.079 1.70069,-0.2373 0.58885,-0.1582 1.31834,-0.4483 2.18847,-0.8701 l 0,1.9248 c -0.82618,0.3867 -1.55567,0.6548 -2.18847,0.8042 -0.63283,0.1582 -1.33156,0.2373 -2.0962,0.2373 m 1.83252,-13.0913 c -0.90528,0 -1.75782,0.4131 -2.55761,1.2392 -0.79102,0.8262 -1.39747,1.9732 -1.81934,3.4409 l 0.1582,0 c 2.0039,0 3.53759,-0.2592 4.60108,-0.7778 1.07225,-0.5273 1.60839,-1.2876 1.6084,-2.2808 -1e-5,-0.4658 -0.16261,-0.8525 -0.4878,-1.1601 -0.31641,-0.3076 -0.81739,-0.4614 -1.50293,-0.4614"
         style="font-style:italic;font-weight:normal;fill:#c3c3c3;font-family:Open Sans;-inkscape-font-specification:Open Sans Italic"
         id="path5204" />
      <path
         d="m 451.85295,1020.1947 -2.21484,0 4.37695,-20.51367 2.21484,0 -4.37695,20.51367"
         style="font-style:italic;font-weight:normal;fill:#c3c3c3;font-family:Open Sans;-inkscape-font-specification:Open Sans Italic"
         id="path5206" />
      <path
         d="m 464.21916,1005.5609 c 1.66991,0 2.98827,0.4966 3.95508,1.4898 0.96678,0.9843 1.45018,2.3423 1.4502,4.0737 -2e-5,1.6523 -0.31642,3.2124 -0.94922,4.6802 -0.63283,1.4677 -1.48976,2.6015 -2.5708,3.4013 -1.08107,0.7998 -2.30275,1.1997 -3.66504,1.1997 -1.68751,0 -3.01026,-0.4965 -3.96826,-1.4897 -0.95801,-0.9932 -1.43702,-2.3511 -1.43702,-4.0737 0,-1.67 0.3208,-3.2388 0.96241,-4.7066 0.64159,-1.4765 1.50732,-2.6059 2.59716,-3.3882 1.08984,-0.791 2.29834,-1.1865 3.62549,-1.1865 m 3.11133,5.2603 c -10e-6,-1.0108 -0.27687,-1.8281 -0.83057,-2.4522 -0.54493,-0.6328 -1.2876,-0.9492 -2.22802,-0.9492 -0.95802,0 -1.81935,0.3252 -2.58399,0.9756 -0.75586,0.6504 -1.34473,1.5557 -1.7666,2.7158 -0.41309,1.1514 -0.61963,2.4346 -0.61963,3.8496 0,1.1514 0.27685,2.0435 0.83057,2.6763 0.56249,0.624 1.36669,0.936 2.4126,0.936 0.91405,0 1.73583,-0.3208 2.46533,-0.9624 0.72948,-0.6416 1.29637,-1.5512 1.70068,-2.729 0.41308,-1.1865 0.61962,-2.54 0.61963,-4.0605"
         style="font-style:italic;font-weight:normal;fill:#c3c3c3;font-family:Open Sans;-inkscape-font-specification:Open Sans Italic"
         id="path5208" />
      <path
         d="m 480.48772,1020.1947 1.95117,-9.123 c 0.17577,-0.9141 0.26366,-1.5469 0.26367,-1.8985 -1e-5,-0.5537 -0.15821,-0.9975 -0.47461,-1.3315 -0.30763,-0.334 -0.80421,-0.501 -1.48975,-0.501 -0.78223,0 -1.54688,0.2637 -2.29394,0.791 -0.73829,0.5274 -1.39307,1.2788 -1.96436,2.2544 -0.5625,0.9756 -0.98877,2.1577 -1.2788,3.5464 l -1.33155,6.2622 -2.21484,0 3.08496,-14.4492 1.83252,0 -0.29004,2.6763 0.13184,0 c 0.84374,-1.0723 1.65673,-1.8282 2.43896,-2.2676 0.79101,-0.4483 1.60839,-0.6724 2.45215,-0.6724 1.1162,0 1.9951,0.3076 2.63672,0.9229 0.65038,0.6064 0.97557,1.459 0.97558,2.5576 -10e-6,0.6943 -0.10108,1.4853 -0.30322,2.373 l -1.88525,8.8594 -2.24121,0"
         style="font-style:italic;font-weight:normal;fill:#c3c3c3;font-family:Open Sans;-inkscape-font-specification:Open Sans Italic"
         id="path5210" />
      <path
         d="m 500.9882,1005.7455 -0.32958,1.4106 -2.78174,0.3164 c 0.36034,0.545 0.54051,1.2393 0.54052,2.083 -10e-6,1.6788 -0.51417,3.0191 -1.54248,4.021 -1.01954,0.9932 -2.38623,1.4898 -4.10009,1.4898 -0.48341,0 -0.85255,-0.035 -1.10743,-0.1055 -1.22168,0.4658 -1.83252,1.0415 -1.83252,1.7271 0,0.3603 0.14502,0.602 0.43506,0.7251 0.29004,0.1142 0.71191,0.2065 1.26563,0.2768 l 1.54248,0.1846 c 1.59081,0.1934 2.74218,0.5801 3.4541,1.1601 0.72069,0.5801 1.08104,1.4327 1.08105,2.5577 -1e-5,1.6171 -0.64161,2.8696 -1.9248,3.7573 -1.28321,0.8877 -3.08936,1.3315 -5.41846,1.3315 -1.70508,0 -3.04101,-0.3252 -4.00781,-0.9756 -0.96679,-0.6416 -1.45019,-1.5512 -1.45019,-2.729 0,-0.9228 0.3164,-1.7226 0.94921,-2.3994 0.63282,-0.6767 1.65674,-1.2524 3.07178,-1.727 -0.68555,-0.3604 -1.02832,-0.8921 -1.02832,-1.5952 0,-0.6065 0.22412,-1.125 0.67236,-1.5557 0.44824,-0.4395 1.07227,-0.8481 1.87207,-1.2261 -0.55371,-0.2812 -1.00635,-0.6943 -1.35791,-1.2392 -0.35156,-0.5537 -0.52734,-1.1953 -0.52734,-1.9248 0,-1.7051 0.52295,-3.1026 1.56885,-4.1924 1.05468,-1.0899 2.39941,-1.6348 4.03418,-1.6348 0.68554,0 1.36229,0.088 2.03027,0.2637 l 4.89111,0 m -14.04052,17.02 c 0,0.6768 0.28564,1.2129 0.85693,1.6084 0.57129,0.3955 1.41943,0.5933 2.54443,0.5933 1.59961,0 2.84765,-0.2813 3.74415,-0.8438 0.90526,-0.5537 1.3579,-1.3403 1.35791,-2.3599 -10e-6,-0.5449 -0.23732,-0.9755 -0.71192,-1.2919 -0.47462,-0.3164 -1.28321,-0.5362 -2.42578,-0.6592 l -2.09619,-0.211 c -1.05469,0.2198 -1.86328,0.6065 -2.42578,1.1602 -0.5625,0.5537 -0.84375,1.2217 -0.84375,2.0039 m 3.66504,-11.5356 c -1e-5,0.747 0.19775,1.3183 0.59326,1.7138 0.3955,0.3868 0.94482,0.5801 1.64795,0.5801 0.69433,0 1.30077,-0.1846 1.81933,-0.5537 0.51855,-0.3691 0.91406,-0.8745 1.18653,-1.5161 0.28124,-0.6504 0.42186,-1.3535 0.42187,-2.1094 -10e-6,-0.7207 -0.19337,-1.27 -0.58008,-1.6479 -0.38672,-0.378 -0.94043,-0.5669 -1.66113,-0.5669 -0.68555,0 -1.2876,0.1801 -1.80615,0.5405 -0.50977,0.3516 -0.90967,0.8481 -1.19971,1.4897 -0.28125,0.6329 -0.42188,1.3228 -0.42187,2.0699"
         style="font-style:italic;font-weight:normal;fill:#c3c3c3;font-family:Open Sans;-inkscape-font-specification:Open Sans Italic"
         id="path5212" />
      <path
         d="m 512.26018,1018.6522 c 0.48339,0 1.1162,-0.1142 1.89844,-0.3428 l 0,1.7007 c -0.29884,0.1231 -0.66798,0.2285 -1.10743,0.3164 -0.43946,0.088 -0.79102,0.1319 -1.05468,0.1319 -1.09864,0 -1.94239,-0.2593 -2.53125,-0.7779 -0.58008,-0.5273 -0.87012,-1.3095 -0.87012,-2.3466 0,-0.5801 0.0791,-1.2393 0.2373,-1.9776 l 1.67432,-7.9365 -2.26758,0 0.18457,-0.9624 2.43897,-1.0283 1.64795,-3.0059 1.29199,0 -0.7251,3.3223 3.61231,0 -0.34278,1.6743 -3.59912,0 -1.70068,7.9629 c -0.15821,0.7646 -0.23731,1.3447 -0.23731,1.7402 0,0.4922 0.12744,0.8701 0.38233,1.1338 0.25487,0.2637 0.61083,0.3955 1.06787,0.3955"
         style="font-style:italic;font-weight:normal;fill:#c3c3c3;font-family:Open Sans;-inkscape-font-specification:Open Sans Italic"
         id="path5214" />
      <path
         d="m 524.28362,1005.5609 c 1.66991,0 2.98826,0.4966 3.95507,1.4898 0.96679,0.9843 1.45018,2.3423 1.4502,4.0737 -2e-5,1.6523 -0.31642,3.2124 -0.94922,4.6802 -0.63283,1.4677 -1.48976,2.6015 -2.5708,3.4013 -1.08106,0.7998 -2.30274,1.1997 -3.66504,1.1997 -1.68751,0 -3.01026,-0.4965 -3.96826,-1.4897 -0.95801,-0.9932 -1.43701,-2.3511 -1.43701,-4.0737 0,-1.67 0.3208,-3.2388 0.9624,-4.7066 0.6416,-1.4765 1.50732,-2.6059 2.59717,-3.3882 1.08983,-0.791 2.29833,-1.1865 3.62549,-1.1865 m 3.11132,5.2603 c -10e-6,-1.0108 -0.27686,-1.8281 -0.83056,-2.4522 -0.54494,-0.6328 -1.28761,-0.9492 -2.22803,-0.9492 -0.95802,0 -1.81934,0.3252 -2.58398,0.9756 -0.75587,0.6504 -1.34474,1.5557 -1.76661,2.7158 -0.41309,1.1514 -0.61963,2.4346 -0.61963,3.8496 0,1.1514 0.27686,2.0435 0.83057,2.6763 0.5625,0.624 1.36669,0.936 2.4126,0.936 0.91405,0 1.73583,-0.3208 2.46533,-0.9624 0.72948,-0.6416 1.29638,-1.5512 1.70068,-2.729 0.41308,-1.1865 0.61962,-2.54 0.61963,-4.0605"
         style="font-style:italic;font-weight:normal;fill:#c3c3c3;font-family:Open Sans;-inkscape-font-specification:Open Sans Italic"
         id="path5216" />
      <path
         d="m 539.29973,1005.4554 3.88916,0 0.73828,6.8291 c 0.12304,1.0723 0.18456,2.3599 0.18457,3.8628 l 0.0791,0 c 0.17578,-0.4482 0.36914,-0.9711 0.58008,-1.5688 0.21093,-0.6064 0.49657,-1.2832 0.85693,-2.0303 l 3.42774,-7.0928 4.31103,0 -8.96484,16.8487 c -1.55567,2.9179 -3.67823,4.3769 -6.36768,4.3769 -0.79101,0 -1.43701,-0.083 -1.93798,-0.2505 l 0,-3.164 c 0.59765,0.1142 1.10742,0.1714 1.52929,0.1714 0.73828,0 1.38428,-0.211 1.93799,-0.6328 0.5625,-0.4219 1.08105,-1.0767 1.55566,-1.9644 l 0.34278,-0.646 -2.16211,-14.7393"
         style="font-weight:bold;-inkscape-font-specification:Open Sans Bold Italic"
         id="path5218" />
      <path
         d="m 562.59514,1011.0189 c -10e-6,-1.7314 -0.62843,-2.5971 -1.88526,-2.5971 -0.65918,0 -1.25244,0.268 -1.77978,0.8042 -0.51856,0.5361 -0.94483,1.3227 -1.27881,2.3598 -0.3252,1.0371 -0.4878,2.105 -0.48779,3.2036 -10e-6,1.626 0.65917,2.439 1.97754,2.439 0.65917,0 1.25243,-0.2681 1.77978,-0.8042 0.52734,-0.5449 0.93603,-1.2964 1.22608,-2.2544 0.29881,-0.9668 0.44823,-2.0171 0.44824,-3.1509 m 3.99463,0 c -2e-5,1.8545 -0.31203,3.4981 -0.93604,4.9307 -0.61525,1.4326 -1.50733,2.5444 -2.67627,3.3354 -1.16895,0.7823 -2.55762,1.1734 -4.16601,1.1734 -1.71388,0 -3.08497,-0.5142 -4.11328,-1.5425 -1.01954,-1.0371 -1.5293,-2.4126 -1.5293,-4.1265 0,-1.872 0.31201,-3.5376 0.93603,-4.9966 0.63281,-1.4677 1.54248,-2.6015 2.72901,-3.4013 1.18652,-0.8086 2.57519,-1.2129 4.16601,-1.2129 1.72265,0 3.08495,0.5186 4.08692,1.5557 1.00194,1.0371 1.50291,2.4653 1.50293,4.2846"
         style="font-weight:bold;-inkscape-font-specification:Open Sans Bold Italic"
         id="path5220" />
      <path
         d="m 571.25676,1005.4554 3.96826,0 -1.80615,8.6089 c -0.14063,0.5977 -0.21094,1.1206 -0.21094,1.5689 0,1.081 0.47461,1.6216 1.42383,1.6216 0.80859,0 1.54247,-0.501 2.20166,-1.503 0.65917,-1.0019 1.17772,-2.3994 1.55566,-4.1924 l 1.292,-6.104 3.96826,0 -3.12451,14.7393 -3.03223,0 0.27685,-2.729 -0.0791,0 c -1.27442,1.9951 -2.83448,2.9927 -4.68017,2.9927 -1.2129,0 -2.14014,-0.3604 -2.78174,-1.0811 -0.6416,-0.7295 -0.9624,-1.7798 -0.9624,-3.1509 0,-0.8173 0.10546,-1.7534 0.3164,-2.8081 l 1.67432,-7.9629"
         style="font-weight:bold;-inkscape-font-specification:Open Sans Bold Italic"
         id="path5222" />
    </g>
  </g>
</svg>
